<svg height="512pt" viewBox="0 -11 512.01332 512" width="512pt" xmlns="http://www.w3.org/2000/svg"><path d="m302.742188 245-68.074219-68.074219-218.539063 218.535157c-10.089844 10.09375-15.789062 23.425781-16.1093748 38.808593-.3828122 17.941407 8.0859378 35.753907 22.7656248 46.035157 24.554688 17.195312 55.230469 11.882812 72.980469-7.636719zm0 0" fill="#455a64"/><path d="m508.886719 195.121094-42.667969-42.667969c-2.003906-1.984375-4.714844-3.113281-7.550781-3.113281h-10.667969v-10.667969c0-2.835937-1.128906-5.546875-3.113281-7.550781l-85.335938-85.332032c-17.128906-17.109374-45.78125-45.7812495-103.550781-45.7812495-57.726562 0-84.203125 26.4726565-103.550781 45.7812495-3.03125 3.070313-3.949219 7.636719-2.304688 11.625 1.640625 3.988282 5.546875 6.59375 9.855469 6.59375 86.039062 0 96 36.523438 96 64 0 33.214844-27.625 55.378907-27.925781 55.59375-2.367188 1.898438-3.859375 4.734376-4.03125 7.765626-.191407 3.050781.9375 6.015624 3.09375 8.171874l53.332031 53.332032c3.734375 3.734375 9.644531 4.179687 13.929688 1.003906 29.015624-21.742188 57.921874-34.882812 68.269531-34.113281v14.910156c0 2.839844 1.128906 5.546875 3.113281 7.554687l53.332031 53.332032c2.007813 1.984375 4.714844 3.113281 7.554688 3.113281h.363281c2.964844-.082031 5.738281-1.40625 7.65625-3.625l74.667969-85.332031c3.710937-4.246094 3.496093-10.605469-.46875-14.59375zm0 0" fill="#cfd8dc"/><path d="m426.667969 298.671875c-2.839844 0-5.546875-1.128906-7.554688-3.113281l-53.332031-53.332032c-1.984375-2.007812-3.113281-4.714843-3.113281-7.554687v-14.890625c-10.347657-.765625-39.253907 12.375-68.269531 34.113281-4.285157 3.179688-10.21875 2.730469-13.929688-1.003906l-53.332031-53.332031c-2.15625-2.15625-3.265625-5.140625-3.09375-8.171875.171875-3.050781 1.664062-5.867188 4.03125-7.765625.300781-.234375 27.925781-22.398438 27.925781-55.613282 0-27.476562-9.960938-64-96-64-4.308594 0-8.214844-2.605468-9.855469-6.59375-1.644531-3.988281-.726562-8.554687 2.304688-11.625 19.347656-19.308593 45.824219-45.7812495 103.550781-45.7812495 57.769531 0 86.421875 28.6718755 103.550781 45.7812495l85.335938 85.332032c1.984375 2.003906 3.113281 4.714844 3.113281 7.550781v10.667969h10.667969c2.835937 0 5.546875 1.128906 7.550781 3.113281l42.667969 42.667969c3.988281 3.96875 4.179687 10.347656.46875 14.570312l-74.667969 85.332032c-1.941406 2.21875-4.714844 3.542968-7.65625 3.628906-.128906.019531-.238281.019531-.363281.019531zm-42.667969-68.414063 42.15625 42.152344 60.585938-69.246094-32.492188-32.492187h-16.917969c-5.886719 0-10.664062-4.777344-10.664062-10.664063v-16.917968l-82.21875-82.21875c-15.746094-15.746094-39.511719-39.53125-88.449219-39.53125-33.960938 0-54.464844 10.132812-70.039062 22.527344 60.671874 5.972656 91.371093 34.199218 91.371093 84.140624 0 30.378907-16.640625 52.882813-27.347656 64.234376l39.125 39.101562c25.34375-17.941406 71.617187-45.695312 91.777344-25.554688 1.984375 2.003907 3.113281 4.714844 3.113281 7.550782zm0 0"/><path d="m55.039062 490.671875c-30.355468 0-55.039062-24.679687-55.039062-55.039063 0-15.957031 5.738281-29.78125 16.128906-40.171874l211.007813-210.984376c4.160156-4.160156 10.921875-4.160156 15.082031 0l53.332031 53.332032c4.011719 4.011718 4.183594 10.496094.363281 14.722656l-200.148437 220.136719c-10.410156 11.433593-25.257813 18.003906-40.726563 18.003906zm179.628907-283.582031-203.457031 203.457031c-6.378907 6.355469-9.878907 14.824219-9.878907 23.828125 0 19.839844 15.125 34.964844 33.707031 34.964844 9.472657 0 18.5625-4.011719 24.941407-11.027344l193.300781-212.609375zm0 0"/></svg>